<?xml version="1.0" standalone="no"?>
<!DOCTYPE svg PUBLIC "-//W3C//DTD SVG 20010904//EN"
 "http://www.w3.org/TR/2001/REC-SVG-20010904/DTD/svg10.dtd">
<svg version="1.0" xmlns="http://www.w3.org/2000/svg"
 width="967.000000pt" height="1266.000000pt" viewBox="0 0 967.000000 1266.000000"
 preserveAspectRatio="xMidYMid meet">
<metadata>
Created by potrace 1.16, written by Peter Selinger 2001-2019
</metadata>
<g transform="translate(0.000000,1266.000000) scale(0.100000,-0.100000)"
fill="#000000" stroke="none">
<path d="M5460 12644 c-79 -20 -206 -86 -269 -137 -106 -89 -195 -226 -222
-344 l-12 -52 -641 -4 c-704 -4 -688 -3 -818 -67 -88 -44 -140 -83 -206 -155
-66 -72 -121 -169 -146 -256 l-17 -57 -117 -4 c-144 -6 -201 -27 -267 -100
-75 -83 -76 -94 -73 -514 3 -423 1 -410 98 -498 78 -69 112 -76 377 -76 123 0
223 -3 223 -7 0 -121 423 -9710 430 -9758 15 -96 59 -219 111 -310 48 -84 163
-214 238 -269 l49 -36 2501 0 2501 0 73 36 c98 50 216 130 315 214 l82 71 0
206 c0 114 -4 203 -8 197 -5 -5 -38 -47 -74 -94 -322 -417 -863 -604 -1379
-475 -326 82 -621 294 -804 580 -209 327 -265 748 -149 1116 130 411 448 736
858 875 249 85 564 88 819 7 279 -88 531 -272 696 -507 l41 -59 0 210 0 210
-81 69 c-118 101 -219 168 -354 234 -107 52 -260 107 -353 125 l-32 7 5 91 c6
83 315 7214 315 7250 0 13 26 16 168 19 159 3 170 4 224 31 31 15 69 42 83 58
l25 31 0 473 0 473 -32 33 c-18 18 -58 44 -88 58 -47 22 -72 26 -171 29 l-115
4 -23 73 c-30 99 -83 185 -162 264 -114 113 -238 173 -397 191 -48 5 -345 10
-664 10 l-577 0 -16 58 c-31 107 -93 211 -175 292 -85 84 -154 129 -262 168
l-73 27 -700 2 c-586 2 -709 0 -755 -13z m1382 -245 c125 -26 239 -111 297
-219 18 -34 31 -63 29 -66 -3 -2 -442 -3 -976 -2 l-970 3 26 54 c54 111 180
206 303 230 68 14 1227 13 1291 0z m1908 -576 c30 -13 78 -40 105 -61 49 -37
135 -150 135 -178 0 -12 -397 -14 -2795 -14 -1537 0 -2795 3 -2795 8 0 19 62
112 101 150 49 49 141 99 203 112 22 4 1155 7 2516 6 l2475 -1 55 -22z m704
-529 c14 -13 16 -57 16 -323 0 -225 -3 -310 -12 -319 -9 -9 -747 -12 -3259
-12 -2939 0 -3249 1 -3263 16 -24 23 -24 598 0 632 l15 22 3244 0 c2935 0
3245 -1 3259 -16z m-5242 -1396 l3 -483 30 -53 c33 -61 90 -105 156 -122 30
-8 161 -10 394 -8 336 3 352 4 390 25 52 28 89 68 114 123 20 43 21 64 21 523
l0 477 875 0 875 0 0 -463 c0 -533 0 -536 76 -611 72 -73 93 -76 479 -76 368
0 399 4 469 62 21 17 49 54 62 82 l24 51 0 478 0 477 365 0 365 0 0 -41 c0
-22 -70 -1647 -155 -3610 -85 -1964 -155 -3594 -155 -3623 l0 -53 -142 -6
c-230 -10 -421 -58 -624 -157 -448 -218 -769 -636 -871 -1135 -28 -138 -25
-483 5 -621 83 -383 305 -735 602 -953 47 -35 87 -65 89 -67 3 -3 -688 -3
-1535 -2 l-1539 3 -70 23 c-227 76 -390 246 -450 470 -12 45 -60 1086 -225
4877 -115 2651 -210 4837 -210 4858 l0 37 290 0 289 0 3 -482z m848 37 l0
-445 -295 0 -295 0 0 445 0 445 295 0 295 0 0 -445z m2860 0 l0 -445 -295 0
-295 0 0 445 0 445 295 0 295 0 0 -445z"/>
<path d="M8338 2504 c-429 -77 -778 -430 -853 -863 -97 -550 240 -1074 785
-1223 74 -20 108 -23 265 -23 157 0 191 3 265 23 384 105 672 394 771 775 27
104 37 315 19 425 -72 453 -420 809 -869 887 -103 18 -280 18 -383 -1z m388
-264 c231 -58 425 -214 530 -425 62 -126 86 -224 86 -360 1 -172 -39 -302
-137 -450 -118 -176 -301 -301 -510 -346 -83 -18 -255 -16 -337 4 -213 52
-406 192 -514 373 -82 140 -116 265 -116 424 1 131 25 231 86 355 104 209 296
364 526 424 105 28 279 28 386 1z"/>
</g>
</svg>
