<?xml version="1.0" standalone="no"?>
<!DOCTYPE svg PUBLIC "-//W3C//DTD SVG 20010904//EN"
 "http://www.w3.org/TR/2001/REC-SVG-20010904/DTD/svg10.dtd">
<svg version="1.0" xmlns="http://www.w3.org/2000/svg"
 width="936.000000pt" height="1242.000000pt" viewBox="0 0 936.000000 1242.000000"
 preserveAspectRatio="xMidYMid meet">
<metadata>
Created by potrace 1.16, written by Peter Selinger 2001-2019
</metadata>
<g transform="translate(0.000000,1242.000000) scale(0.100000,-0.100000)"
fill="#000000" stroke="none">
<path d="M5460 12404 c-79 -20 -206 -86 -269 -137 -106 -89 -195 -226 -222
-344 l-12 -52 -641 -4 c-704 -4 -688 -3 -818 -67 -88 -44 -140 -83 -206 -155
-66 -72 -121 -169 -146 -256 l-17 -57 -117 -4 c-144 -6 -201 -27 -267 -100
-75 -83 -76 -94 -73 -514 3 -423 1 -410 98 -498 78 -69 112 -76 377 -76 123 0
223 -3 223 -7 0 -119 423 -9710 430 -9757 15 -96 55 -213 104 -298 l41 -73
182 -3 182 -2 -56 52 c-94 89 -154 191 -188 316 -12 45 -60 1086 -225 4877
-115 2651 -210 4837 -210 4858 l0 37 290 0 289 0 3 -482 3 -483 30 -53 c33
-61 90 -105 156 -122 30 -8 161 -10 394 -8 336 3 352 4 390 25 52 28 89 68
114 123 20 43 21 64 21 523 l0 477 875 0 875 0 0 -463 c0 -533 0 -536 76 -611
72 -73 93 -76 479 -76 368 0 399 4 469 62 21 17 49 54 62 82 l24 51 0 478 0
477 365 0 365 0 0 -41 c0 -22 -70 -1647 -155 -3610 -85 -1964 -155 -3594 -155
-3623 l0 -53 -142 -6 c-230 -10 -421 -58 -624 -157 -448 -218 -769 -636 -871
-1135 -28 -138 -25 -483 5 -621 66 -305 215 -583 428 -801 l92 -93 238 0 239
0 -75 41 c-145 78 -294 205 -403 342 -274 342 -362 812 -231 1228 177 561 690
939 1274 941 276 0 525 -74 748 -224 l82 -56 0 158 0 159 -122 60 c-110 53
-263 108 -356 126 l-32 7 5 91 c6 84 315 7214 315 7251 0 14 15 16 95 16 l95
0 0 130 0 130 -3204 0 c-2900 0 -3206 1 -3220 16 -24 23 -24 598 0 632 l15 22
3205 0 3204 0 0 130 0 130 -48 0 -47 0 -23 74 c-31 100 -84 186 -163 265 -114
113 -238 173 -397 191 -48 5 -345 10 -664 10 l-577 0 -16 58 c-31 107 -93 211
-175 292 -85 84 -154 129 -262 168 l-73 27 -700 2 c-586 2 -709 0 -755 -13z
m1382 -245 c125 -26 239 -111 297 -219 18 -34 31 -63 29 -66 -3 -2 -442 -3
-976 -2 l-970 3 26 54 c54 111 180 206 303 230 68 14 1227 13 1291 0z m1908
-576 c30 -13 78 -40 105 -61 49 -37 135 -150 135 -178 0 -12 -397 -14 -2795
-14 -1537 0 -2795 3 -2795 8 0 19 62 112 101 150 49 49 141 99 203 112 22 4
1155 7 2516 6 l2475 -1 55 -22z m-3690 -1888 l0 -445 -295 0 -295 0 0 445 0
445 295 0 295 0 0 -445z m2860 0 l0 -445 -295 0 -295 0 0 445 0 445 295 0 295
0 0 -445z"/>
<path d="M8338 2264 c-429 -77 -778 -430 -853 -863 -97 -550 240 -1074 785
-1223 74 -20 108 -23 265 -23 157 0 191 3 265 23 185 51 355 148 488 278 l72
71 0 686 0 687 -75 74 c-153 152 -352 254 -564 291 -103 18 -280 18 -383 -1z
m388 -264 c231 -58 425 -214 530 -425 62 -126 86 -224 86 -360 1 -172 -39
-302 -137 -450 -118 -176 -301 -301 -510 -346 -83 -18 -255 -16 -337 4 -213
52 -406 192 -514 373 -82 140 -116 265 -116 424 1 131 25 231 86 355 104 209
296 364 526 424 105 28 279 28 386 1z"/>
<path d="M9305 120 c-27 -21 -84 -57 -125 -79 l-75 -41 128 0 127 0 0 80 c0
44 -1 80 -2 79 -2 0 -25 -18 -53 -39z"/>
</g>
</svg>
